<svg version="1.1" id="Layer_1" xmlns="http://www.w3.org/2000/svg" xmlns:xlink="http://www.w3.org/1999/xlink" x="0px" y="0px"
	 width="100%" viewBox="0 0 1200 1200" enable-background="new 0 0 1200 1200" xml:space="preserve">
<path fill="#3178C6" opacity="1.000000" stroke="none" 
	d="
M1.000002,1170.000000 
	C1.000000,790.967285 1.000000,411.934540 1.284548,32.771217 
	C1.996559,32.156849 2.613532,31.743635 2.823778,31.178976 
	C8.127645,16.934366 17.455864,6.917488 32.428535,2.717520 
	C32.754009,2.626223 32.815411,1.593539 33.000000,1.000000 
	C411.699371,1.000000 790.398743,1.000000 1169.329346,1.335159 
	C1170.055298,2.075149 1170.487061,2.645461 1171.053833,2.860582 
	C1185.183350,8.223730 1195.102783,17.568737 1199.288208,32.437531 
	C1199.379150,32.760071 1200.408447,32.818409 1201.000000,33.000008 
	C1201.000000,411.699371 1201.000000,790.398743 1200.714600,1169.229858 
	C1199.970703,1170.012939 1199.350464,1170.603271 1199.077759,1171.324951 
	C1194.068604,1184.576050 1185.097168,1193.855957 1171.773193,1198.885010 
	C1171.022949,1199.168213 1170.583862,1200.276001 1170.000000,1201.000000 
	C790.967285,1201.000000 411.934540,1201.000000 32.769920,1200.714600 
	C32.151424,1200.002808 31.734518,1199.378784 31.168066,1199.179321 
	C17.423935,1194.339844 8.124406,1185.023926 2.953469,1171.450317 
	C2.710135,1170.811523 1.669401,1170.476440 1.000002,1170.000000 
M937.132141,1090.688232 
	C952.754761,1086.735840 968.806702,1083.991577 983.924377,1078.618530 
	C1043.886719,1057.307495 1081.376709,1011.835876 1084.397949,946.974731 
	C1086.849487,894.343811 1070.199951,850.910706 1027.887207,818.251648 
	C1004.891541,800.502563 979.118286,787.817871 952.828674,775.938110 
	C930.553894,765.872681 908.218689,755.895508 886.340881,745.013428 
	C872.585144,738.171326 860.098145,729.119202 850.814514,716.449280 
	C837.699463,698.550659 839.476562,675.709717 855.144470,660.004395 
	C864.343628,650.783386 875.729553,645.462280 888.044189,641.934143 
	C911.997070,635.071777 936.335632,634.841187 960.855713,637.878662 
	C995.332764,642.149597 1027.782104,652.282715 1057.269775,671.050110 
	C1058.294189,671.702148 1059.449463,672.148560 1060.929443,672.882019 
	C1060.929443,639.767334 1060.929443,607.276245 1060.929443,574.785156 
	C1060.929443,561.097168 1060.906860,561.167847 1047.561523,556.909546 
	C1006.591736,543.836975 964.367310,540.657837 921.723083,541.060730 
	C886.538818,541.393127 851.981018,546.015076 818.734314,558.040894 
	C792.714172,567.452759 769.318970,581.168152 750.406799,601.760315 
	C727.993347,626.164734 716.654602,655.071472 714.608276,688.052185 
	C711.720337,734.598938 725.036438,774.799011 759.684204,807.013428 
	C783.205811,828.883179 811.117310,843.448853 840.300964,856.127197 
	C864.238159,866.526367 888.003174,877.377502 911.431274,888.870728 
	C924.782776,895.420654 936.557251,904.581909 945.925537,916.442688 
	C963.587341,938.803650 959.230225,968.038513 935.673950,984.061462 
	C931.709839,986.757874 927.381226,989.033508 922.980774,990.952759 
	C907.328857,997.779419 890.709839,1000.266724 873.815796,1000.754700 
	C824.234009,1002.186768 778.670715,989.233521 737.320251,961.783203 
	C730.441895,957.217102 723.899536,952.144897 716.797424,947.014343 
	C716.642029,948.542542 716.430359,949.655518 716.429871,950.768616 
	C716.412537,987.930359 716.467224,1025.092285 716.328186,1062.253418 
	C716.315552,1065.645996 717.953064,1066.813477 720.537537,1068.039673 
	C753.822998,1083.831909 789.365967,1090.510132 825.666565,1093.944092 
	C862.645081,1097.442261 899.541382,1096.692139 937.132141,1090.688232 
M240.997192,577.500000 
	C240.997192,597.949707 240.997192,618.399475 240.997192,639.388306 
	C291.967529,639.388306 342.380981,639.388306 393.450439,639.388306 
	C393.450439,785.647766 393.450439,931.365051 393.450439,1077.199951 
	C434.287933,1077.199951 474.463409,1077.199951 515.031372,1077.199951 
	C515.031372,931.126343 515.031372,785.523376 515.031372,639.307251 
	C566.142761,639.307251 616.863525,639.307251 667.775330,639.307251 
	C667.775330,606.285522 667.775330,573.878296 667.775330,541.300293 
	C525.468872,541.300293 383.421844,541.300293 240.997192,541.300293 
	C240.997192,553.232117 240.997192,564.866028 240.997192,577.500000 
z"/>
<path fill="#000000" opacity="1.000000" stroke="none" 
	d="
M32.531342,1.000000 
	C32.815411,1.593539 32.754009,2.626223 32.428535,2.717520 
	C17.455864,6.917488 8.127645,16.934366 2.823778,31.178976 
	C2.613532,31.743635 1.996559,32.156849 1.284548,32.320312 
	C1.000000,21.738972 1.000000,11.477942 1.000000,1.000000 
	C11.353220,1.000000 21.707951,1.000000 32.531342,1.000000 
z"/>
<path fill="#000000" opacity="1.000000" stroke="none" 
	d="
M1201.000000,32.531349 
	C1200.408447,32.818409 1199.379150,32.760071 1199.288208,32.437531 
	C1195.102783,17.568737 1185.183350,8.223730 1171.053833,2.860582 
	C1170.487061,2.645461 1170.055298,2.075149 1169.780273,1.335159 
	C1180.260986,1.000000 1190.522095,1.000000 1201.000000,1.000000 
	C1201.000000,11.353219 1201.000000,21.707951 1201.000000,32.531349 
z"/>
<path fill="#000000" opacity="1.000000" stroke="none" 
	d="
M1.000002,1170.468628 
	C1.669401,1170.476440 2.710135,1170.811523 2.953469,1171.450317 
	C8.124406,1185.023926 17.423935,1194.339844 31.168066,1199.179321 
	C31.734518,1199.378784 32.151424,1200.002808 32.319016,1200.714600 
	C21.740135,1201.000000 11.480270,1201.000000 1.000000,1201.000000 
	C1.000000,1190.980103 1.000000,1180.958740 1.000002,1170.468628 
z"/>
<path fill="#000000" opacity="1.000000" stroke="none" 
	d="
M1170.468628,1201.000000 
	C1170.583862,1200.276001 1171.022949,1199.168213 1171.773193,1198.885010 
	C1185.097168,1193.855957 1194.068604,1184.576050 1199.077759,1171.324951 
	C1199.350464,1170.603271 1199.970703,1170.012939 1200.714600,1169.680786 
	C1201.000000,1180.259888 1201.000000,1190.519653 1201.000000,1201.000000 
	C1190.980103,1201.000000 1180.958740,1201.000000 1170.468628,1201.000000 
z"/>
<path fill="#FEFFFF" opacity="1.000000" stroke="none" 
	d="
M936.704102,1090.765381 
	C899.541382,1096.692139 862.645081,1097.442261 825.666565,1093.944092 
	C789.365967,1090.510132 753.822998,1083.831909 720.537537,1068.039673 
	C717.953064,1066.813477 716.315552,1065.645996 716.328186,1062.253418 
	C716.467224,1025.092285 716.412537,987.930359 716.429871,950.768616 
	C716.430359,949.655518 716.642029,948.542542 716.797424,947.014343 
	C723.899536,952.144897 730.441895,957.217102 737.320251,961.783203 
	C778.670715,989.233521 824.234009,1002.186768 873.815796,1000.754700 
	C890.709839,1000.266724 907.328857,997.779419 922.980774,990.952759 
	C927.381226,989.033508 931.709839,986.757874 935.673950,984.061462 
	C959.230225,968.038513 963.587341,938.803650 945.925537,916.442688 
	C936.557251,904.581909 924.782776,895.420654 911.431274,888.870728 
	C888.003174,877.377502 864.238159,866.526367 840.300964,856.127197 
	C811.117310,843.448853 783.205811,828.883179 759.684204,807.013428 
	C725.036438,774.799011 711.720337,734.598938 714.608276,688.052185 
	C716.654602,655.071472 727.993347,626.164734 750.406799,601.760315 
	C769.318970,581.168152 792.714172,567.452759 818.734314,558.040894 
	C851.981018,546.015076 886.538818,541.393127 921.723083,541.060730 
	C964.367310,540.657837 1006.591736,543.836975 1047.561523,556.909546 
	C1060.906860,561.167847 1060.929443,561.097168 1060.929443,574.785156 
	C1060.929443,607.276245 1060.929443,639.767334 1060.929443,672.882019 
	C1059.449463,672.148560 1058.294189,671.702148 1057.269775,671.050110 
	C1027.782104,652.282715 995.332764,642.149597 960.855713,637.878662 
	C936.335632,634.841187 911.997070,635.071777 888.044189,641.934143 
	C875.729553,645.462280 864.343628,650.783386 855.144470,660.004395 
	C839.476562,675.709717 837.699463,698.550659 850.814514,716.449280 
	C860.098145,729.119202 872.585144,738.171326 886.340881,745.013428 
	C908.218689,755.895508 930.553894,765.872681 952.828674,775.938110 
	C979.118286,787.817871 1004.891541,800.502563 1027.887207,818.251648 
	C1070.199951,850.910706 1086.849487,894.343811 1084.397949,946.974731 
	C1081.376709,1011.835876 1043.886719,1057.307495 983.924377,1078.618530 
	C968.806702,1083.991577 952.754761,1086.735840 936.704102,1090.765381 
z"/>
<path fill="#FEFFFF" opacity="1.000000" stroke="none" 
	d="
M240.997192,577.000000 
	C240.997192,564.866028 240.997192,553.232117 240.997192,541.300293 
	C383.421844,541.300293 525.468872,541.300293 667.775330,541.300293 
	C667.775330,573.878296 667.775330,606.285522 667.775330,639.307251 
	C616.863525,639.307251 566.142761,639.307251 515.031372,639.307251 
	C515.031372,785.523376 515.031372,931.126343 515.031372,1077.199951 
	C474.463409,1077.199951 434.287933,1077.199951 393.450439,1077.199951 
	C393.450439,931.365051 393.450439,785.647766 393.450439,639.388306 
	C342.380981,639.388306 291.967529,639.388306 240.997192,639.388306 
	C240.997192,618.399475 240.997192,597.949707 240.997192,577.000000 
z"/>
</svg>